<svg width="23" height="23" viewBox="0 0 23 23" fill="none" xmlns="http://www.w3.org/2000/svg">
<path d="M5.75 1.91666L2.875 5.74999V19.1667C2.875 19.675 3.07693 20.1625 3.43638 20.5219C3.79582 20.8814 4.28334 21.0833 4.79167 21.0833H18.2083C18.7167 21.0833 19.2042 20.8814 19.5636 20.5219C19.9231 20.1625 20.125 19.675 20.125 19.1667V5.74999L17.25 1.91666H5.75Z" stroke="#014B4B" stroke-linecap="round" stroke-linejoin="round"/>
<path d="M2.875 5.75H20.125" stroke="#014B4B" stroke-linecap="round" stroke-linejoin="round"/>
<path d="M15.3334 9.58334C15.3334 10.6 14.9295 11.575 14.2106 12.2939C13.4917 13.0128 12.5167 13.4167 11.5 13.4167C10.4834 13.4167 9.50833 13.0128 8.78944 12.2939C8.07055 11.575 7.66669 10.6 7.66669 9.58334" stroke="#014B4B" stroke-linecap="round" stroke-linejoin="round"/>
</svg>
