<svg width="154" height="54" viewBox="0 0 154 54" fill="none" xmlns="http://www.w3.org/2000/svg">
<circle cx="27" cy="27" r="27" fill="#014B4B"/>
<g filter="url(#filter0_d_36_8)">
<path d="M26.6294 25.9692H36.5415V38.9233C35.2313 39.3563 33.8698 39.7038 32.457 39.9658C31.0443 40.2165 29.4435 40.3418 27.6548 40.3418C25.1711 40.3418 23.0633 39.8519 21.3315 38.8721C19.5998 37.8923 18.2839 36.4453 17.3838 34.5312C16.4837 32.6172 16.0337 30.2645 16.0337 27.4731C16.0337 24.8527 16.535 22.5854 17.5376 20.6714C18.5516 18.7573 20.027 17.2762 21.9639 16.228C23.9121 15.1799 26.2876 14.6558 29.0903 14.6558C30.4119 14.6558 31.7165 14.7982 33.0039 15.083C34.2913 15.3678 35.4591 15.7381 36.5073 16.1938L34.7471 20.4321C33.9837 20.0448 33.1121 19.7201 32.1323 19.458C31.1525 19.196 30.1271 19.0649 29.0562 19.0649C27.5181 19.0649 26.1794 19.4181 25.04 20.1245C23.9121 20.8309 23.0348 21.8221 22.4082 23.0981C21.793 24.3628 21.4854 25.8553 21.4854 27.5757C21.4854 29.2049 21.7075 30.6519 22.1519 31.9165C22.5962 33.1698 23.2969 34.1553 24.2539 34.873C25.2109 35.5794 26.4585 35.9326 27.9966 35.9326C28.7485 35.9326 29.3809 35.8984 29.8936 35.8301C30.4176 35.7503 30.9076 35.6706 31.3633 35.5908V30.3784H26.6294V25.9692ZM53.1187 19.0649C52.1047 19.0649 51.2046 19.2643 50.4185 19.6631C49.6437 20.0505 48.9886 20.6144 48.4531 21.355C47.929 22.0955 47.5303 22.9899 47.2568 24.0381C46.9834 25.0863 46.8467 26.2655 46.8467 27.5757C46.8467 29.3416 47.0632 30.8512 47.4961 32.1045C47.9404 33.3464 48.624 34.2977 49.5469 34.9585C50.4697 35.6079 51.6603 35.9326 53.1187 35.9326C54.1326 35.9326 55.1466 35.8187 56.1606 35.5908C57.186 35.363 58.2969 35.0382 59.4932 34.6167V39.0601C58.388 39.5158 57.3 39.8405 56.229 40.0342C55.158 40.2393 53.9561 40.3418 52.623 40.3418C50.0482 40.3418 47.929 39.812 46.2656 38.7524C44.6136 37.6815 43.3888 36.189 42.5913 34.2749C41.7938 32.3494 41.395 30.105 41.395 27.5415C41.395 25.6502 41.6514 23.9185 42.1641 22.3462C42.6768 20.7739 43.4287 19.4124 44.4199 18.2617C45.4111 17.111 46.6359 16.2223 48.0942 15.5957C49.5526 14.9691 51.2274 14.6558 53.1187 14.6558C54.3605 14.6558 55.6024 14.8153 56.8442 15.1343C58.0975 15.4419 59.2938 15.8691 60.4331 16.416L58.7241 20.7227C57.7899 20.2783 56.8499 19.891 55.9043 19.5605C54.9587 19.2301 54.0301 19.0649 53.1187 19.0649Z" fill="white"/>
</g>
<path d="M78.47 20.07C78.1993 19.5007 77.8073 19.062 77.294 18.754C76.7807 18.4367 76.1833 18.278 75.502 18.278C74.8207 18.278 74.2047 18.4367 73.654 18.754C73.1127 19.062 72.6833 19.51 72.366 20.098C72.058 20.6767 71.904 21.3487 71.904 22.114C71.904 22.8793 72.058 23.5513 72.366 24.13C72.6833 24.7087 73.1127 25.1567 73.654 25.474C74.2047 25.782 74.8207 25.936 75.502 25.936C76.454 25.936 77.238 25.6513 77.854 25.082C78.47 24.5127 78.8293 23.7427 78.932 22.772H75.04V21.736H80.29V22.716C80.2153 23.5187 79.9633 24.256 79.534 24.928C79.1047 25.5907 78.54 26.118 77.84 26.51C77.14 26.8927 76.3607 27.084 75.502 27.084C74.5967 27.084 73.7707 26.874 73.024 26.454C72.2773 26.0247 71.6847 25.432 71.246 24.676C70.8167 23.92 70.602 23.066 70.602 22.114C70.602 21.162 70.8167 20.308 71.246 19.552C71.6847 18.7867 72.2773 18.194 73.024 17.774C73.7707 17.3447 74.5967 17.13 75.502 17.13C76.538 17.13 77.4527 17.3867 78.246 17.9C79.0487 18.4133 79.632 19.1367 79.996 20.07H78.47ZM87.1125 27L84.7885 23.01H83.2485V27H81.9745V17.242H85.1245C85.8618 17.242 86.4825 17.368 86.9865 17.62C87.4998 17.872 87.8825 18.2127 88.1345 18.642C88.3865 19.0713 88.5125 19.5613 88.5125 20.112C88.5125 20.784 88.3165 21.3767 87.9245 21.89C87.5418 22.4033 86.9632 22.744 86.1885 22.912L88.6385 27H87.1125ZM83.2485 21.988H85.1245C85.8152 21.988 86.3332 21.82 86.6785 21.484C87.0238 21.1387 87.1965 20.6813 87.1965 20.112C87.1965 19.5333 87.0238 19.0853 86.6785 18.768C86.3425 18.4507 85.8245 18.292 85.1245 18.292H83.2485V21.988ZM91.7661 18.278V21.54H95.3221V22.59H91.7661V25.95H95.7421V27H90.4921V17.228H95.7421V18.278H91.7661ZM98.9438 18.278V21.54H102.5V22.59H98.9438V25.95H102.92V27H97.6698V17.228H102.92V18.278H98.9438ZM112.52 27H111.246L106.122 19.23V27H104.848V17.228H106.122L111.246 24.984V17.228H112.52V27ZM115.965 18.278V21.54H119.521V22.59H115.965V25.95H119.941V27H114.691V17.228H119.941V18.278H115.965ZM127.007 27L124.683 23.01H123.143V27H121.869V17.242H125.019C125.756 17.242 126.377 17.368 126.881 17.62C127.394 17.872 127.777 18.2127 128.029 18.642C128.281 19.0713 128.407 19.5613 128.407 20.112C128.407 20.784 128.211 21.3767 127.819 21.89C127.436 22.4033 126.858 22.744 126.083 22.912L128.533 27H127.007ZM123.143 21.988H125.019C125.71 21.988 126.228 21.82 126.573 21.484C126.918 21.1387 127.091 20.6813 127.091 20.112C127.091 19.5333 126.918 19.0853 126.573 18.768C126.237 18.4507 125.719 18.292 125.019 18.292H123.143V21.988ZM137.219 17.242L134.041 23.318V27H132.767V23.318L129.575 17.242H130.989L133.397 22.184L135.805 17.242H137.219ZM70.602 38.114C70.602 37.162 70.8167 36.308 71.246 35.552C71.6753 34.7867 72.2587 34.1893 72.996 33.76C73.7427 33.3307 74.5687 33.116 75.474 33.116C76.538 33.116 77.4667 33.3727 78.26 33.886C79.0533 34.3993 79.632 35.1273 79.996 36.07H78.47C78.1993 35.482 77.8073 35.0293 77.294 34.712C76.79 34.3947 76.1833 34.236 75.474 34.236C74.7927 34.236 74.1813 34.3947 73.64 34.712C73.0987 35.0293 72.674 35.482 72.366 36.07C72.058 36.6487 71.904 37.33 71.904 38.114C71.904 38.8887 72.058 39.57 72.366 40.158C72.674 40.7367 73.0987 41.1847 73.64 41.502C74.1813 41.8193 74.7927 41.978 75.474 41.978C76.1833 41.978 76.79 41.824 77.294 41.516C77.8073 41.1987 78.1993 40.746 78.47 40.158H79.996C79.632 41.0913 79.0533 41.8147 78.26 42.328C77.4667 42.832 76.538 43.084 75.474 43.084C74.5687 43.084 73.7427 42.874 72.996 42.454C72.2587 42.0247 71.6753 41.432 71.246 40.676C70.8167 39.92 70.602 39.066 70.602 38.114ZM86.3165 43.098C85.4111 43.098 84.5851 42.888 83.8385 42.468C83.0918 42.0387 82.4991 41.446 82.0605 40.69C81.6311 39.9247 81.4165 39.066 81.4165 38.114C81.4165 37.162 81.6311 36.308 82.0605 35.552C82.4991 34.7867 83.0918 34.194 83.8385 33.774C84.5851 33.3447 85.4111 33.13 86.3165 33.13C87.2311 33.13 88.0618 33.3447 88.8085 33.774C89.5551 34.194 90.1431 34.782 90.5725 35.538C91.0018 36.294 91.2165 37.1527 91.2165 38.114C91.2165 39.0753 91.0018 39.934 90.5725 40.69C90.1431 41.446 89.5551 42.0387 88.8085 42.468C88.0618 42.888 87.2311 43.098 86.3165 43.098ZM86.3165 41.992C86.9978 41.992 87.6091 41.8333 88.1505 41.516C88.7011 41.1987 89.1305 40.746 89.4385 40.158C89.7558 39.57 89.9145 38.8887 89.9145 38.114C89.9145 37.33 89.7558 36.6487 89.4385 36.07C89.1305 35.482 88.7058 35.0293 88.1645 34.712C87.6231 34.3947 87.0071 34.236 86.3165 34.236C85.6258 34.236 85.0098 34.3947 84.4685 34.712C83.9271 35.0293 83.4978 35.482 83.1805 36.07C82.8725 36.6487 82.7185 37.33 82.7185 38.114C82.7185 38.8887 82.8725 39.57 83.1805 40.158C83.4978 40.746 83.9271 41.1987 84.4685 41.516C85.0191 41.8333 85.6351 41.992 86.3165 41.992ZM94.1723 41.964H97.5883V43H92.8983V33.242H94.1723V41.964ZM100.215 41.964H103.631V43H98.9413V33.242H100.215V41.964ZM106.258 34.278V37.54H109.814V38.59H106.258V41.95H110.234V43H104.984V33.228H110.234V34.278H106.258ZM111.686 38.114C111.686 37.162 111.901 36.308 112.33 35.552C112.759 34.7867 113.343 34.1893 114.08 33.76C114.827 33.3307 115.653 33.116 116.558 33.116C117.622 33.116 118.551 33.3727 119.344 33.886C120.137 34.3993 120.716 35.1273 121.08 36.07H119.554C119.283 35.482 118.891 35.0293 118.378 34.712C117.874 34.3947 117.267 34.236 116.558 34.236C115.877 34.236 115.265 34.3947 114.724 34.712C114.183 35.0293 113.758 35.482 113.45 36.07C113.142 36.6487 112.988 37.33 112.988 38.114C112.988 38.8887 113.142 39.57 113.45 40.158C113.758 40.7367 114.183 41.1847 114.724 41.502C115.265 41.8193 115.877 41.978 116.558 41.978C117.267 41.978 117.874 41.824 118.378 41.516C118.891 41.1987 119.283 40.746 119.554 40.158H121.08C120.716 41.0913 120.137 41.8147 119.344 42.328C118.551 42.832 117.622 43.084 116.558 43.084C115.653 43.084 114.827 42.874 114.08 42.454C113.343 42.0247 112.759 41.432 112.33 40.676C111.901 39.92 111.686 39.066 111.686 38.114ZM128.982 33.242V34.278H126.322V43H125.048V34.278H122.374V33.242H128.982ZM131.825 33.242V43H130.551V33.242H131.825ZM138.42 43.098C137.515 43.098 136.689 42.888 135.942 42.468C135.195 42.0387 134.603 41.446 134.164 40.69C133.735 39.9247 133.52 39.066 133.52 38.114C133.52 37.162 133.735 36.308 134.164 35.552C134.603 34.7867 135.195 34.194 135.942 33.774C136.689 33.3447 137.515 33.13 138.42 33.13C139.335 33.13 140.165 33.3447 140.912 33.774C141.659 34.194 142.247 34.782 142.676 35.538C143.105 36.294 143.32 37.1527 143.32 38.114C143.32 39.0753 143.105 39.934 142.676 40.69C142.247 41.446 141.659 42.0387 140.912 42.468C140.165 42.888 139.335 43.098 138.42 43.098ZM138.42 41.992C139.101 41.992 139.713 41.8333 140.254 41.516C140.805 41.1987 141.234 40.746 141.542 40.158C141.859 39.57 142.018 38.8887 142.018 38.114C142.018 37.33 141.859 36.6487 141.542 36.07C141.234 35.482 140.809 35.0293 140.268 34.712C139.727 34.3947 139.111 34.236 138.42 34.236C137.729 34.236 137.113 34.3947 136.572 34.712C136.031 35.0293 135.601 35.482 135.284 36.07C134.976 36.6487 134.822 37.33 134.822 38.114C134.822 38.8887 134.976 39.57 135.284 40.158C135.601 40.746 136.031 41.1987 136.572 41.516C137.123 41.8333 137.739 41.992 138.42 41.992ZM152.674 43H151.4L146.276 35.23V43H145.002V33.228H146.276L151.4 40.984V33.228H152.674V43Z" fill="black"/>
<defs>
<filter id="filter0_d_36_8" x="12.0337" y="14.6558" width="52.3994" height="33.686" filterUnits="userSpaceOnUse" color-interpolation-filters="sRGB">
<feFlood flood-opacity="0" result="BackgroundImageFix"/>
<feColorMatrix in="SourceAlpha" type="matrix" values="0 0 0 0 0 0 0 0 0 0 0 0 0 0 0 0 0 0 127 0" result="hardAlpha"/>
<feOffset dy="4"/>
<feGaussianBlur stdDeviation="2"/>
<feComposite in2="hardAlpha" operator="out"/>
<feColorMatrix type="matrix" values="0 0 0 0 0 0 0 0 0 0.552941 0 0 0 0 0.168627 0 0 0 1 0"/>
<feBlend mode="normal" in2="BackgroundImageFix" result="effect1_dropShadow_36_8"/>
<feBlend mode="normal" in="SourceGraphic" in2="effect1_dropShadow_36_8" result="shape"/>
</filter>
</defs>
</svg>
